<svg xmlns="http://www.w3.org/2000/svg" width="188" height="188" viewBox="0 0 188 188">
  <g id="Group_3254" data-name="Group 3254" transform="translate(0.024 -0.086)">
    <rect id="Fill" width="188" height="188" rx="40" transform="translate(-0.024 0.086)" fill="#eceeff"/>
    <g id="Group_1000001631" data-name="Group 1000001631" transform="translate(51.071 50.172)">
      <path id="Subtract" d="M43,18.346A8.6,8.6,0,0,0,47.773,16.9L60.2,8.615V48.448a4.3,4.3,0,0,1-4.3,4.3H51.6v8.6h4.3a12.9,12.9,0,0,0,12.9-12.9V8.615A8.6,8.6,0,0,0,55.432,1.459L43,9.746H12.9A12.9,12.9,0,0,0,0,22.646v4.3H8.6v-4.3a4.3,4.3,0,0,1,4.3-4.3Z" transform="translate(17.201 0)" fill="#ae68fa"/>
      <g id="Rectangle_192_Stroke_" data-name="Rectangle 192 (Stroke)" transform="translate(0 26.947)" fill="#fff">
        <path d="M 8.642366409301758 56.52573776245117 C 8.642138481140137 56.52573776245117 8.64198112487793 56.52573776245117 8.641753196716309 56.52573776245117 C 7.202835559844971 56.52558517456055 5.770706176757812 55.95245742797852 4.712588787078857 54.95332717895508 C 3.9313063621521 54.21562194824219 3.000000476837158 52.9151611328125 3.000000476837158 50.90917205810547 L 3.000000476837158 12.90064430236816 C 3.000000476837158 7.441408634185791 7.441412448883057 2.999997138977051 12.90064716339111 2.999997138977051 L 55.90280151367188 2.999997138977051 C 61.36202239990234 2.999997138977051 65.80343627929688 7.441408634185791 65.80343627929688 12.90064430236816 L 65.80343627929688 38.70193862915039 C 65.80343627929688 44.16116333007812 61.36202239990234 48.60257339477539 55.90280151367188 48.60257339477539 L 21.50107192993164 48.60257339477539 L 20.44873046875 48.60257339477539 L 19.62698936462402 49.25997161865234 L 12.09900093078613 55.28237533569336 C 11.08223342895508 56.09577560424805 9.886908531188965 56.52573776245117 8.642366409301758 56.52573776245117 Z" stroke="none"/>
        <path d="M 8.641412734985352 59.52573776245117 C 4.194048404693604 59.52524185180664 -4.937274752592202e-06 56.02201461791992 -4.937274752592202e-06 50.9091682434082 L -4.937274752592202e-06 12.90064716339111 C -4.937274752592202e-06 5.775815963745117 5.775810241699219 6.598839377147669e-07 12.90064144134521 6.598839377147669e-07 L 55.90279388427734 6.598839377147669e-07 C 63.02762603759766 6.598839377147669e-07 68.80344390869141 5.775815963745117 68.80344390869141 12.90064716339111 L 68.80344390869141 38.70193862915039 C 68.80344390869141 45.8267707824707 63.02761077880859 51.60256958007812 55.90279388427734 51.60256958007812 L 21.50107192993164 51.60256958007812 L 13.97308731079102 57.62496948242188 C 12.33430671691895 58.93599700927734 10.46691513061523 59.52594375610352 8.641412734985352 59.52573776245117 Z M 12.90064144134521 8.600431442260742 C 10.52570247650146 8.600431442260742 8.600425720214844 10.52570819854736 8.600425720214844 12.90064716339111 L 8.600425720214844 50.9091682434082 L 16.12842559814453 44.88676834106445 C 17.65339469909668 43.66680145263672 19.54816436767578 43.00215530395508 21.50107192993164 43.00215530395508 L 55.90279388427734 43.00215530395508 C 58.27773284912109 43.00215530395508 60.20301055908203 41.07687759399414 60.20301055908203 38.70193862915039 L 60.20301055908203 12.90064716339111 C 60.20301055908203 10.52570819854736 58.27773284912109 8.600431442260742 55.90279388427734 8.600431442260742 L 12.90064144134521 8.600431442260742 Z" stroke="none" fill="#ae68fa"/>
      </g>
      <path id="Vector_409_Stroke_" data-name="Vector 409 (Stroke)" d="M0,4.3A4.3,4.3,0,0,1,4.3,0H30.1a4.3,4.3,0,1,1,0,8.6H4.3A4.3,4.3,0,0,1,0,4.3Z" transform="translate(17.201 48.448)" fill="#ae68fa"/>
    </g>
  </g>
</svg>
