<svg xmlns="http://www.w3.org/2000/svg" xmlns:xlink="http://www.w3.org/1999/xlink" width="120" height="118" viewBox="0 0 120 118">
  <defs>
    <filter id="Rectangle_2191" x="0" y="0" width="120" height="118" filterUnits="userSpaceOnUse">
      <feOffset dx="2" dy="5" input="SourceAlpha"/>
      <feGaussianBlur stdDeviation="5" result="blur"/>
      <feFlood flood-opacity="0.239"/>
      <feComposite operator="in" in2="blur"/>
      <feComposite in="SourceGraphic"/>
    </filter>
  </defs>
  <g id="logo_icon" data-name="logo icon" transform="translate(-114.341 -246.658)">
    <g transform="matrix(1, 0, 0, 1, 114.34, 246.66)" filter="url(#Rectangle_2191)">
      <rect id="Rectangle_2191-2" data-name="Rectangle 2191" width="90" height="88" rx="8" transform="translate(13 10)" fill="#0056a2"/>
    </g>
    <g id="Group_3247" data-name="Group 3247" transform="translate(139.447 267.573)">
      <g id="caduceus-symbol" transform="translate(0 0)">
        <path id="Path_2033" data-name="Path 2033" d="M71.483,3.852A1.99,1.99,0,0,0,70.754,2.1a2.483,2.483,0,0,0-2.287.151A25.406,25.406,0,0,1,62.5,3.71a.97.97,0,0,0-.85,1.084.984.984,0,0,0,1.108.832,27.354,27.354,0,0,0,6.429-1.578c.072-.028.195-.074.323-.12a4.959,4.959,0,0,1-1.318,3.787c-1.493,1.529-4.355,2.342-8.5,2.418a.966.966,0,1,0,.018,1.932h.019a22.535,22.535,0,0,0,5.9-.778,4.506,4.506,0,0,1-1,3.167,5.307,5.307,0,0,1-1.954,1.362l-.023.01a16.015,16.015,0,0,1-5.892,1,.966.966,0,1,0,.018,1.932h.019a20.712,20.712,0,0,0,5.372-.7,4.562,4.562,0,0,1-1.009,2.534,8.787,8.787,0,0,1-5.54,2.835,11.664,11.664,0,0,0-.758-1.194,11.909,11.909,0,0,0-5.213-4.017c-2.184-.826-4-.665-4.98.443-.912,1.034-.87,2.765-.477,4.215-.827-.129-1.668-.277-2.517-.442V14.91a11.62,11.62,0,0,0,7.53-4.662l.04-.055c2.494-3.387,5.289-3.859,8.966-4.155a.967.967,0,1,0-.162-1.926c-3.933.317-7.43.908-10.407,4.952l-.049.067a9.649,9.649,0,0,1-5.918,3.81V10.323a5.6,5.6,0,0,0,2.581-4.695,5.757,5.757,0,0,0-11.511,0,5.6,5.6,0,0,0,2.58,4.693v2.62a9.685,9.685,0,0,1-5.913-3.8l-.053-.073c-3.251-4.416-7.032-4.7-11.41-5.028A31.371,31.371,0,0,1,8.526,2.247,2.486,2.486,0,0,0,6.236,2.1a1.988,1.988,0,0,0-.73,1.754,6.868,6.868,0,0,0,1.863,5.2,7.753,7.753,0,0,0,2.061,1.483A6.675,6.675,0,0,0,10.855,15.7a6.862,6.862,0,0,0,1.993,1.565A6.519,6.519,0,0,0,14.3,21.808a10.514,10.514,0,0,0,6.274,3.454,7.936,7.936,0,0,0-.2,4.629c.648,2.264,2.41,4.02,5.238,5.218l5.133,2.179a18.835,18.835,0,0,0-3.967,2.671.951.951,0,0,0-.054,1.365,1,1,0,0,0,1.4.053,18.947,18.947,0,0,1,5-3.08l2.893,1.228-2.2.936c-3.4,1.44-4.994,2.974-4.886,4.689.106,1.674,1.863,3.047,5.081,3.971l2,.575.013,0L45.9,52.537c3.205.919,5.163,2.8,5.371,5.165a4.422,4.422,0,0,1-2.428,4.376,4.746,4.746,0,0,1-2.928.662,2.919,2.919,0,0,1,.677-1.335c1.277-1.732,1.681-3.195,1.236-4.471-.424-1.215-1.591-2.106-3.469-2.65l-12-3.481c-.244-.071-.782-.247-.819-.257-3.862-1.3-5.933-3.414-5.577-5.733a.97.97,0,0,0-.83-1.1A.984.984,0,0,0,24,44.526c-.421,2.742,1.254,5.193,4.578,6.885-2.836,1.33-4.6,3.526-4.83,6.125a6.358,6.358,0,0,0,3.524,6.276,8.353,8.353,0,0,0,3.4.911,2.457,2.457,0,0,0,1.939-.741c.521-.6.837-1.732-.614-3.707-.863-1.17-1.188-2.084-.968-2.715.256-.733,1.318-1.178,2.164-1.423l2.12-.615v7.329a3.176,3.176,0,0,0,6.35,0V55.52l2.124.616c.845.244,1.905.69,2.16,1.422.221.632-.105,1.546-.969,2.718-1.449,1.973-1.133,3.1-.613,3.706a2.456,2.456,0,0,0,1.939.742,8.352,8.352,0,0,0,3.4-.911,6.358,6.358,0,0,0,3.524-6.276c-.23-2.605-2-4.806-4.85-6.135,2.817-1.466,4.44-3.531,4.537-5.869.125-3-2.24-5.943-6.568-8.29l5.027-2.134c2.826-1.2,4.587-2.954,5.235-5.218a7.941,7.941,0,0,0-.2-4.634,10.6,10.6,0,0,0,6.3-3.484,6.5,6.5,0,0,0,1.426-4.508,6.861,6.861,0,0,0,2-1.568,6.671,6.671,0,0,0,1.422-5.166,7.75,7.75,0,0,0,2.06-1.483,6.867,6.867,0,0,0,1.864-5.2ZM32.638,54.284c-1.88.544-3.048,1.436-3.473,2.651-.446,1.276-.042,2.738,1.234,4.469a2.929,2.929,0,0,1,.678,1.337,4.748,4.748,0,0,1-2.928-.662A4.422,4.422,0,0,1,25.721,57.7c.208-2.363,2.166-4.246,5.375-5.166l.155-.045c.178.056,3.77,1.1,3.77,1.1Zm7.056,8.567a1.2,1.2,0,0,1-2.4,0v-7.9l1.2-.348,1.2.347Zm5.449-37.886a5.377,5.377,0,0,0,2.713,1.9c1.39.459,1.772.911,1.78,1.086.019.415-1,1.449-3.333,2.447L41.67,32.385V24.4C42.849,24.624,44.011,24.812,45.143,24.965ZM38.5,1.932a3.742,3.742,0,0,1,3.778,3.7,3.781,3.781,0,0,1-7.56,0A3.744,3.744,0,0,1,38.5,1.932Zm0,9.327a5.876,5.876,0,0,0,1.2-.124v22.1l-1.2.515-1.2-.514v-22.1a5.885,5.885,0,0,0,1.2.124ZM31.846,24.965c1.145-.155,2.307-.343,3.474-.563v7.984L30.687,30.4c-2.329-1-3.35-2.033-3.331-2.448.008-.175.389-.627,1.776-1.085a5.367,5.367,0,0,0,2.714-1.9ZM15.852,20.618a4.585,4.585,0,0,1-1.027-2.564,20.707,20.707,0,0,0,5.373.7h.019a.966.966,0,1,0,.018-1.932c-3.929-.07-6.575-.867-7.867-2.368a4.511,4.511,0,0,1-1-3.168,22.541,22.541,0,0,0,5.9.777h.019a.966.966,0,1,0,.018-1.932c-4.15-.076-7.011-.889-8.5-2.418A4.96,4.96,0,0,1,7.481,3.926c.129.046.254.094.326.121a33.042,33.042,0,0,0,9.984,1.916c4.205.315,7.244.543,9.961,4.234l.045.061A11.654,11.654,0,0,0,35.32,14.91v7.52q-1.263.246-2.516.442c.394-1.449.435-3.181-.477-4.215-.978-1.11-2.793-1.272-4.978-.443a11.9,11.9,0,0,0-5.216,4.016,11.646,11.646,0,0,0-.759,1.2A8.693,8.693,0,0,1,15.852,20.618Zm23.842,20.47v6.964l-1.2.344-1.2-.345V41.088l1.2-.509Zm2.7,1.146c2.784,1.18,3.736,2.219,3.7,2.8-.038.6-1.186,1.525-3.666,2.236l-.757.217V41.927Zm-11.5,2.8c-.036-.578.916-1.616,3.7-2.8l.723-.307v5.558l-.757-.217c-2.48-.712-3.628-1.636-3.666-2.236Zm20.053.423c-.085,2.028-2,3.843-5.261,5.007L42,49.4l.981-.282c3.218-.923,4.976-2.3,5.082-3.971.109-1.715-1.49-3.249-4.885-4.689L26.4,33.337c-2.255-.956-3.642-2.291-4.121-3.966a7.254,7.254,0,0,1,1.471-6.025h0a9.852,9.852,0,0,1,4.316-3.328c1.259-.477,2.4-.517,2.768-.1.476.54.271,2.433-.39,3.614a3.329,3.329,0,0,1-1.94,1.5c-2.015.665-3.065,1.618-3.119,2.831-.086,1.919,2.406,3.4,4.511,4.3l13.338,5.72C48.174,40.007,51.059,42.835,50.95,45.454Zm3.765-16.083c-.479,1.676-1.865,3.01-4.119,3.966l-6.563,2.786-.009,0L40.954,34.8,47.1,32.169c2.107-.9,4.6-2.382,4.514-4.3-.054-1.214-1.1-2.166-3.122-2.832a3.332,3.332,0,0,1-1.937-1.5c-.663-1.184-.868-3.078-.393-3.616.378-.427,1.493-.389,2.772.095a9.861,9.861,0,0,1,4.314,3.33,7.256,7.256,0,0,1,1.471,6.026Z" transform="translate(-5.503 0)" fill="#fff"/>
      </g>
    </g>
  </g>
</svg>
