<svg xmlns="http://www.w3.org/2000/svg" width="83.529" height="18" viewBox="0 0 83.529 18">
  <g id="logo_letter" data-name="logo letter" transform="translate(-0.002 0)">
    <path id="Path_11" data-name="Path 11" d="M-318.258-302.41l2.268,16.222a.865.865,0,0,1-.84.889h-2.656a1.036,1.036,0,0,1-1.04-1.032v-.186a1.036,1.036,0,0,1,1.04-1.032h1.227l-2.122-12.638a1.038,1.038,0,0,0-1.026-.862h-.484a1.038,1.038,0,0,0-1.03.886l-2.012,13.978a1.036,1.036,0,0,1-1.029.886h-.18a1.034,1.034,0,0,1-.78-.349,1.034,1.034,0,0,1-.251-.817l2.113-15.945a.866.866,0,0,1,.84-.889h5.123a.865.865,0,0,1,.839.889Z" transform="translate(327.183 303.299)" fill="#f15f57"/>
    <path id="Path_12" data-name="Path 12" d="M-305.32-302.409v16.223a.865.865,0,0,0,.84.889h4.922a1.036,1.036,0,0,0,1.04-1.032v-.186a1.036,1.036,0,0,0-1.04-1.032h-2.455a1.036,1.036,0,0,1-1.04-1.032v-11.436a1.036,1.036,0,0,1,1.04-1.032h4.722a1.036,1.036,0,0,1,1.04,1.032v9.186a1.036,1.036,0,0,0,1.04,1.032h.189a1.036,1.036,0,0,0,1.04-1.032v-11.579a.866.866,0,0,0-.84-.889h-9.657A.866.866,0,0,0-305.32-302.409Z" transform="translate(318.74 303.298)" fill="#f15f57"/>
    <path id="Path_13" data-name="Path 13" d="M-227.686-286.188V-302.41a.866.866,0,0,0-.84-.889h-9.457a1.036,1.036,0,0,0-1.04,1.032v.186a1.036,1.036,0,0,0,1.04,1.032h8.03v13.5h-5.762a1.036,1.036,0,0,1-1.04-1.032v-9.187a1.036,1.036,0,0,0-1.04-1.032h-.189a1.036,1.036,0,0,0-1.04,1.032v11.579a.865.865,0,0,0,.84.889h9.657A.865.865,0,0,0-227.686-286.188Z" transform="translate(293.133 303.299)" fill="#f15f57"/>
    <path id="Path_14" data-name="Path 14" d="M-198.215-287.55v1.218a1.036,1.036,0,0,1-1.04,1.032h-9.457a.865.865,0,0,1-.84-.889v-16.222a.866.866,0,0,1,.84-.889h9.457a1.036,1.036,0,0,1,1.04,1.032v.186a1.036,1.036,0,0,1-1.04,1.032h-8.03v13.5Z" transform="translate(281.746 303.3)" fill="#f15f57"/>
    <path id="Path_15" data-name="Path 15" d="M-274.155-302.175v13.593a1.036,1.036,0,0,1-1.04,1.032h-4.722a1.036,1.036,0,0,1-1.04-1.032v-13.686A1.036,1.036,0,0,0-282-303.3h-.189a1.038,1.038,0,0,0-1.04,1.032v16.079a.865.865,0,0,0,.84.889h9.657a.865.865,0,0,0,.84-.889v-15.986a1.129,1.129,0,0,0-1.133-1.125h0A1.13,1.13,0,0,0-274.155-302.175Z" transform="translate(310.208 303.3)" fill="#f15f57"/>
    <rect id="Rectangle_7" data-name="Rectangle 7" width="2.267" height="2.267" rx="1.134" transform="translate(4.391 8.99)" fill="#f15f57"/>
    <path id="Path_16" data-name="Path 16" d="M-251.956-302.41l2.268,16.222a.865.865,0,0,1-.84.889h-2.655a1.036,1.036,0,0,1-1.04-1.032v-.186a1.036,1.036,0,0,1,1.04-1.032h1.227l-2.122-12.638a1.038,1.038,0,0,0-1.026-.862h-.484a1.038,1.038,0,0,0-1.03.886l-2.012,13.978a1.038,1.038,0,0,1-1.029.886h-.18a1.034,1.034,0,0,1-.78-.349,1.034,1.034,0,0,1-.251-.817l2.113-15.945a.866.866,0,0,1,.84-.889h5.123a.865.865,0,0,1,.839.889Z" transform="translate(301.572 303.299)" fill="#f15f57"/>
    <rect id="Rectangle_8" data-name="Rectangle 8" width="2.267" height="2.267" rx="1.134" transform="translate(45.083 8.99)" fill="#f15f57"/>
    <path id="Path_17" data-name="Path 17" d="M-214.652-282.333V-294.9a1.04,1.04,0,0,0-1.04-1.04h-.187a1.04,1.04,0,0,0-1.04,1.04v12.564" transform="translate(284.579 300.332)" fill="#f15f57"/>
    <rect id="Rectangle_9" data-name="Rectangle 9" width="2.267" height="2.267" rx="1.134" transform="translate(67.66 0)" fill="#f15f57"/>
    <rect id="Rectangle_10" data-name="Rectangle 10" width="2.38" height="2.38" rx="0.967" transform="translate(22.357 15.62)" fill="#f15f57"/>
  </g>
</svg>
